<svg xmlns="http://www.w3.org/2000/svg" width="96" height="24" viewBox="0 0 96 24" fill="none">
<path d="M14.9054 9.46163C14.9054 4.01714 11.2708 0.768066 5.18016 0.768066H0V23.3133H4.35413V18.1589H5.62438C6.2742 18.1589 6.92769 18.1111 7.65827 18.0083L10.1804 23.2876H15.3716L11.5829 16.4811C13.6975 14.9759 14.9017 12.439 14.9017 9.4653L14.9054 9.46163ZM10.6283 9.46163C10.6283 12.2445 8.80003 13.9075 5.73452 13.9075H4.3578V5.04509H5.73452C8.84409 5.04509 10.6283 6.65678 10.6283 9.46163Z" fill="#191F28"/>
<path d="M28.1517 0.331055C21.7123 0.331055 16.4697 5.56996 16.4697 12.013C16.4697 18.4561 21.7086 23.6693 28.1517 23.6693C33.3062 23.6693 37.7704 20.4092 39.261 15.5595L39.4078 15.0859H34.7049L34.6095 15.3062C33.5264 17.8136 30.9235 19.4987 28.126 19.4987C24.385 19.4987 21.3121 16.8738 20.8165 13.3347H39.6905L39.7235 13.0043C40.0466 9.81761 38.9819 6.60526 36.7975 4.18956C34.5838 1.74083 31.4301 0.33473 28.148 0.33473L28.1517 0.331055ZM21.2093 9.42478C22.1602 6.47308 24.9393 4.45022 28.126 4.45022C31.3127 4.45022 34.1506 6.51714 35.05 9.42478H21.213H21.2093Z" fill="#191F28"/>
<path d="M56.7029 0.76416H51.5264V23.3094H55.8805V18.155H57.0994C63.9793 18.155 66.4281 13.665 66.4281 9.4614C66.4281 4.01691 62.7935 0.767835 56.7029 0.767835V0.76416ZM57.2572 13.9036H55.8805V5.04119H57.2572C60.3668 5.04119 62.151 6.65287 62.151 9.45772C62.151 12.2626 60.3227 13.9036 57.2572 13.9036Z" fill="#191F28"/>
<path d="M82.126 0.76416V4.96409H86.8876V23.3094H91.2417V4.96409H95.9997V0.76416H82.126Z" fill="#191F28"/>
<path d="M76.5205 16.4368C76.5793 16.3376 76.6344 16.2385 76.6894 16.1394C78.9876 12.0716 80.4341 6.52434 78.4883 3.29362C77.5595 1.74802 75.9625 0.925648 73.9984 0.984388C70.3969 1.08351 69.156 4.18206 69.1964 7.04932C69.2367 9.85784 70.3381 13.3713 72.1114 16.4257C70.5511 18.4486 68.8072 19.6344 67.3057 19.6344V23.3057C69.7324 23.3057 72.1738 21.9657 74.3104 19.5353C76.4324 21.9841 78.8188 23.3057 81.1941 23.3057V19.6344C79.7623 19.6344 78.0662 18.4596 76.5169 16.4331L76.5205 16.4368ZM74.3251 12.6957C73.4367 10.7059 72.897 8.64999 72.8713 7.00159C72.8383 4.69237 73.7267 4.66667 74.1049 4.65566C74.1379 4.65566 74.1673 4.65566 74.1966 4.65566C74.9235 4.65566 75.1805 4.91264 75.3457 5.19166C76.0543 6.36647 75.801 9.39894 74.3215 12.6994L74.3251 12.6957Z" fill="#191F28"/>
</svg>